<svg width="39" height="48" fill="none" xmlns="http://www.w3.org/2000/svg"><path fill-rule="evenodd" clip-rule="evenodd" d="M24.8 0H4.01A4.003 4.003 0 0 0 .014 3.998v39.979a4.003 4.003 0 0 0 3.998 3.997H24v-1.43a18.178 18.178 0 0 1 3.064-10.12.8.8 0 0 0-.1-1.008l-5.597-5.597a2.594 2.594 0 0 1 .19-3.838 2.693 2.693 0 0 1 3.58.275l7.893 7.893 1.13-1.13-5.362-5.365V3.998A4.003 4.003 0 0 0 24.8 0Zm2.398 26.055-.93-.93a4.303 4.303 0 0 0-5.729-.38 4.194 4.194 0 0 0-.303 6.204l5.142 5.142a19.77 19.77 0 0 0-2.971 10.284H4.01a2.4 2.4 0 0 1-2.399-2.398v-2.4h19.99V39.98H1.611V6.397h25.586v19.658ZM1.612 4.797h25.586v-.8A2.4 2.4 0 0 0 24.8 1.6H4.01a2.4 2.4 0 0 0-2.398 2.399v.8ZM31.155 18.6l-1.078 1.18 4.903 4.494a5.61 5.61 0 0 1 1.813 4.127v19.573h1.6V28.401a7.214 7.214 0 0 0-2.334-5.305L31.155 18.6ZM4.81 14.393H8.01c.883 0 1.599-.715 1.599-1.599V9.595c0-.883-.716-1.6-1.6-1.6H4.81c-.883 0-1.599.717-1.599 1.6v3.198c0 .884.716 1.6 1.6 1.6Zm0-4.797H8.01v3.198H4.81V9.595Zm11.194 4.797h-3.198c-.883 0-1.6-.715-1.6-1.599V9.595c0-.883.717-1.6 1.6-1.6h3.198c.884 0 1.6.717 1.6 1.6v3.198c0 .884-.716 1.6-1.6 1.6Zm0-4.797h-3.198v3.198h3.198V9.595Zm4.798 4.797H24c.883 0 1.6-.715 1.6-1.599V9.595c0-.883-.717-1.6-1.6-1.6h-3.198c-.884 0-1.6.717-1.6 1.6v3.198c0 .884.716 1.6 1.6 1.6Zm0-4.797H24v3.198h-3.198V9.595ZM8.009 22.388H4.81c-.883 0-1.599-.716-1.599-1.6v-3.197c0-.884.716-1.6 1.6-1.6h3.198c.883 0 1.599.716 1.599 1.6v3.198c0 .883-.716 1.6-1.6 1.6Zm0-4.797H4.81v3.198H8.01V17.59ZM4.81 30.384H8.01c.883 0 1.599-.716 1.599-1.6v-3.198c0-.883-.716-1.599-1.6-1.599H4.81c-.883 0-1.599.716-1.599 1.6v3.198c0 .883.716 1.599 1.6 1.599Zm0-4.798H8.01v3.199H4.81v-3.199Zm11.194-3.198h-3.198a1.6 1.6 0 0 1-1.6-1.6v-3.197c0-.884.717-1.6 1.6-1.6h3.198c.884 0 1.6.716 1.6 1.6v3.198c0 .883-.716 1.6-1.6 1.6Zm0-4.797h-3.198v3.198h3.198V17.59Zm4.798 4.797H24c.883 0 1.6-.716 1.6-1.6v-3.197c0-.884-.717-1.6-1.6-1.6h-3.198c-.884 0-1.6.716-1.6 1.6v3.198c0 .883.716 1.6 1.6 1.6Zm0-4.797H24v3.198h-3.198V17.59Zm-4.798 12.793h-3.198c-.883 0-1.6-.716-1.6-1.6v-3.198c0-.883.717-1.599 1.6-1.599h3.198c.884 0 1.6.716 1.6 1.6v3.198c0 .883-.716 1.599-1.6 1.599Zm0-4.798h-3.198v3.199h3.198v-3.199ZM4.81 38.38H8.01c.883 0 1.599-.716 1.599-1.6v-3.198c0-.883-.716-1.6-1.6-1.6H4.81c-.883 0-1.599.717-1.599 1.6v3.198c0 .884.716 1.6 1.6 1.6Zm0-4.798H8.01v3.198H4.81v-3.198Zm11.194 4.797h-3.198c-.883 0-1.6-.715-1.6-1.599v-3.198a1.6 1.6 0 0 1 1.6-1.6h3.198c.884 0 1.6.717 1.6 1.6v3.198c0 .884-.716 1.6-1.6 1.6Zm0-4.797h-3.198v3.198h3.198v-3.198Zm-.8 9.595h-1.598v1.6h1.599v-1.6Z" fill="#495567"/></svg>