<svg width="43" height="32" fill="none" xmlns="http://www.w3.org/2000/svg"><path d="M18.07 30.301a.833.833 0 0 0-.585.242.833.833 0 0 0-.242.585c0 .217.088.43.242.584a.833.833 0 0 0 .585.243c.217 0 .43-.089.584-.242a.832.832 0 0 0 .243-.585.833.833 0 0 0-.243-.585.834.834 0 0 0-.584-.242Z" fill="#000"/><path fill-rule="evenodd" clip-rule="evenodd" d="m34.54 16.419-1.928-8.706c.52-.07.979-.335 1.301-.718.381.238.83.376 1.312.376h1.654c.456 0 .826-.37.826-.827V3.237a.827.827 0 0 0-.826-.827h-1.654c-.496 0-.958.147-1.346.398a2.06 2.06 0 0 0-1.546-.698h-4.88c-.878 0-1.628.55-1.927 1.323h-1.96c-1.185 0-2.15.964-2.15 2.15 0 1.185.965 2.15 2.15 2.15h4.256v1.666a.827.827 0 1 0 1.654 0V7.732h1.447l2.075 9.379-3.928 6.997a2.429 2.429 0 0 1-2.113 1.234h-9.806c-.411-3.442-3.346-6.121-6.898-6.121a6.88 6.88 0 0 0-4.287 1.48l-.005.004a6.906 6.906 0 0 0-2.607 4.637H1.656c.108-5.944 4.977-10.746 10.946-10.746h5.866c.463 0 .84.377.84.84v7.426c0 .456.37.827.826.827h4.4a4.932 4.932 0 0 0 4.932-4.927l.004-2.747a.827.827 0 0 0-1.654-.003l-.004 2.748a3.279 3.279 0 0 1-3.278 3.274h-3.573v-6.599a2.48 2.48 0 0 0-.293-1.172 2.482 2.482 0 0 0 1.244-2.15 2.483 2.483 0 0 0-2.48-2.48h-3.019c-.29 0-.568.05-.827.142V2.522a2.484 2.484 0 0 0-2.48-2.48H7.77C3.904.041.69 2.88.098 6.582a.827.827 0 0 0-.039.25v.007a7.81 7.81 0 0 0-.06.972v4.302c.001 1.242.919 2.273 2.111 2.453l1.832 1.83A12.568 12.568 0 0 0 0 25.545v.625c0 .457.37.827.827.827h4.647a.845.845 0 0 0-.017.165c0 1.2.444 2.298 1.176 3.14H.827a.827.827 0 0 0 0 1.654h9.358c.023.002.045.002.068.002a4.801 4.801 0 0 0 4.796-4.796.842.842 0 0 0-.016-.165h11.924a4.085 4.085 0 0 0 3.281-1.656h1.047A4.772 4.772 0 0 0 32.1 30.3H21.377a.827.827 0 0 0 0 1.654h14.248l.096.002a4.801 4.801 0 0 0 4.796-4.796 4.79 4.79 0 0 0-.36-1.821h1.352c.457 0 .827-.37.827-.827 0-4.365-3.47-7.934-7.797-8.094Zm-18.127-5.132h3.018a.828.828 0 0 1 0 1.654h-3.018a.828.828 0 0 1 0-1.654ZM1.656 7.711a2.993 2.993 0 0 0-.002.102v4.3c0 .457.37.828.826.828h10.625a.828.828 0 0 0 .827-.827V2.522a.828.828 0 0 0-.827-.827H7.771a6.128 6.128 0 0 0-5.845 4.311h8.78a.827.827 0 1 1 0 1.654H1.658l-.002.05Zm2.821 6.884H6.37c-.397.226-.78.475-1.15.742l-.742-.742Zm5.808 15.708a3.145 3.145 0 0 0 3.11-3.142.85.85 0 0 1 .017-.165H7.095c.01.053.016.109.016.165 0 1.701 1.358 3.09 3.047 3.14h.113l.014.002Zm-5.262-4.96a5.26 5.26 0 0 1 1.96-3.338L6.99 22a5.24 5.24 0 0 1 3.263-1.125 5.303 5.303 0 0 1 5.23 4.467H5.023Zm31.029-21.28h-.827a.828.828 0 0 0 0 1.655h.827V4.064ZM23.07 5.584c0-.274.222-.497.496-.497h1.822v.582c0 .14.014.278.04.41h-1.862a.497.497 0 0 1-.496-.495Zm4.382.496h4.881c.227 0 .411-.184.411-.411V4.174a.411.411 0 0 0-.41-.41h-4.882a.412.412 0 0 0-.41.41v1.494c0 .227.184.41.41.41ZM38.863 27.16a3.145 3.145 0 0 1-3.11 3.142h-.007l-.007-.001-.018-.001h-.095a3.145 3.145 0 0 1-3.047-3.14c0-.657.205-1.292.582-1.821h5.12c.377.53.582 1.164.582 1.821Zm-4.507-9.091-3.153 5.616h9.426a6.454 6.454 0 0 0-6.273-5.616Z" fill="#495567"/><path d="M28.649 13.533a.827.827 0 1 0 0-1.653h-.003a.826.826 0 1 0 .003 1.653Z" fill="#000"/></svg>